<?xml version="1.0" encoding="UTF-8"?>
<svg version="1.1" xmlns="http://www.w3.org/2000/svg" width="512" height="512">
<path d="M0,0 L43,0 L64,3 L89,9 L107,15 L126,25 L124,34 L119,48 L115,62 L114,64 L112,64 L110,76 L108,76 L107,79 L89,71 L68,64 L49,60 L42,59 L7,59 L-8,62 L-23,67 L-38,75 L-49,84 L-57,92 L-64,102 L-71,114 L-78,132 L-83,154 L-85,175 L-85,195 L-83,216 L-79,236 L-73,254 L-65,269 L-57,280 L-53,284 L-53,286 L-49,288 L-41,295 L-25,304 L-11,309 L6,312 L47,312 L67,309 L88,303 L110,294 L113,294 L130,345 L130,347 L114,355 L90,363 L67,368 L43,371 L-5,371 L-31,367 L-51,361 L-68,354 L-82,346 L-93,338 L-103,329 L-114,318 L-126,301 L-134,287 L-144,262 L-150,239 L-153,219 L-154,208 L-154,164 L-151,141 L-146,120 L-139,101 L-131,84 L-120,67 L-112,57 L-103,47 L-96,40 L-79,27 L-63,18 L-45,10 L-24,4 L-8,1 Z " fill="#E2B553" transform="translate(275,112)"/>
<path d="M0,0 L43,0 L64,3 L89,9 L107,15 L126,25 L124,34 L119,48 L115,62 L114,64 L112,64 L110,76 L108,76 L107,79 L89,71 L68,64 L49,60 L42,59 L7,59 L-8,62 L-23,67 L-38,75 L-49,84 L-57,92 L-64,102 L-71,114 L-75,122 L-90,126 L-109,129 L-120,133 L-140,137 L-142,138 L-150,138 L-147,123 L-140,103 L-131,84 L-120,67 L-112,57 L-103,47 L-96,40 L-79,27 L-63,18 L-45,10 L-24,4 L-8,1 Z " fill="#006D77" transform="translate(275,112)"/>
<path d="M0,0 L5,0 L2,10 L-3,32 L-5,53 L-5,73 L-3,94 L1,114 L7,132 L15,147 L23,158 L27,162 L27,164 L31,166 L34,170 L21,170 L-5,168 L-53,167 L-63,143 L-69,121 L-73,97 L-74,86 L-74,42 L-71,19 L-70,16 L-60,14 L-37,9 L-29,6 L-10,3 Z " fill="#F5F5F5" transform="translate(195,234)"/>
<path d="M0,0 L2,1 L-5,14 L-20,18 L-39,21 L-50,25 L-70,29 L-72,30 L-80,30 L-78,20 L-65,16 L-64,15 L-41,13 L-41,11 L-31,10 L-30,9 L-22,9 L-22,7 L-17,5 L-10,4 L-5,1 Z " fill="#638E94" transform="translate(205,220)"/>
</svg>
